<svg width="940" height="294" viewBox="0 0 940 294" fill="none" xmlns="http://www.w3.org/2000/svg">
<path d="M678.054 99.8784C687.305 123.556 699.144 150.918 708.396 175.615H709.258C719.136 150.84 729.251 123.948 739.6 99.8784H759.827L697.654 240.845H678.524L699.614 194.118L657.826 99.8784H678.054ZM564.384 96.8188C590.021 96.8188 607.191 113.833 610.249 137.04V156.405H543.529V156.483C536.865 156.483 532.317 157.737 532.317 164.009C532.317 175.848 546.273 188.314 566.501 188.314C586.729 188.314 599.43 180.16 605.859 172.633H606.329L606.094 189.412C600.527 195.449 586.729 205.092 565.639 205.092C534.67 205.092 512.482 183.374 512.482 151.073C512.483 118.772 534.67 96.8192 564.384 96.8188ZM289.255 81.147H252.363V202.122H233.39V81.147H188.23V64.3696H289.255V81.147ZM646.61 202.122H628.343V64.3696H646.61V202.122ZM322.967 202.12H304.699V99.8833H322.967V202.12ZM932 202.119H913.026V61.1509H932V202.119ZM460.075 97.3716C483.125 97.3716 496.454 113.757 496.454 141.904L496.219 141.826V202.117H477.951V147C477.951 120.5 468.464 112.817 455.371 112.817C443.141 112.817 431.302 124.029 431.302 149.823V202.117H413.034V147C413.034 120.5 403.783 112.817 390.689 112.817C378.459 112.817 366.62 124.029 366.62 149.823V202.117H348.353V99.8804H362.543L364.269 117.991C368.581 108.112 378.93 97.3717 395.473 97.3716C412.015 97.3717 422.992 106.388 427.774 119.559C431.616 109.053 442.435 97.3718 460.075 97.3716ZM898.111 201.724V202.117H876.551L861.89 167.933H803.559L788.896 202.117H767.18V201.724L830.921 62.8745H835.076L898.111 201.724ZM832.724 96.6655C825.432 114.541 816.808 134.299 809.046 152.174H856.401L833.194 96.6655H832.724ZM563.13 113.048C543.294 113.048 532.161 127.004 530.828 147.231C533.651 144.409 538.355 142.293 546.116 142.292H592.374C592.374 126.612 581.633 113.048 563.13 113.048ZM313.794 53.1548C321.085 53.1548 326.73 58.3296 326.73 64.9937C326.73 71.6578 321.164 77.0679 313.794 77.0679C306.424 77.0677 301.093 71.6577 301.093 64.9937C301.093 58.3297 306.503 53.155 313.794 53.1548Z" fill="black"/>
<path d="M138.85 139.032C138.85 140.153 137.942 141.061 136.821 141.061H102.68C102.243 141.061 101.817 141.202 101.466 141.464L68.378 166.167C67.596 166.751 68.0089 167.994 68.9848 167.994H88.961C90.0815 167.994 90.9897 168.902 90.9897 170.023V201.438C90.9897 202.559 90.0815 203.467 88.961 203.467H51.5331C50.4127 203.467 49.5045 202.559 49.5045 201.438V169.008C49.5045 168.37 49.8049 167.769 50.3154 167.386L86.0593 140.56C86.5698 140.177 86.8703 139.576 86.8703 138.938V104.989C86.8703 103.869 85.962 102.96 84.8416 102.96H10.0287C8.90827 102.96 8 102.052 8 100.932V67.5453C8 66.4249 8.90827 65.5166 10.0287 65.5166H59.4153C60.0663 65.5166 60.6777 65.829 61.0592 66.3566L86.9202 102.12C87.3016 102.648 87.9131 102.96 88.5641 102.96H136.821C137.942 102.96 138.85 103.869 138.85 104.989V139.032Z" fill="black"/>
</svg>
